<?xml version="1.0" standalone="no"?><!DOCTYPE svg PUBLIC "-//W3C//DTD SVG 1.1//EN" "http://www.w3.org/Graphics/SVG/1.1/DTD/svg11.dtd"><svg t="1740413741504" class="icon" viewBox="0 0 1024 1024" version="1.1" xmlns="http://www.w3.org/2000/svg" p-id="3311" xmlns:xlink="http://www.w3.org/1999/xlink" width="200" height="200"><path d="M512 0C230.4 0 0 230.4 0 512s230.4 512 512 512c102.4 0 204.8-32 288-89.6l-32-32c-76.8 51.2-166.4 76.8-262.4 76.8C256 979.2 44.8 768 44.8 512S256 44.8 512 44.8 979.2 256 979.2 512c0 83.2-25.6 160-64 224l38.4 25.6c44.8-76.8 70.4-160 70.4-256C1024 230.4 793.6 0 512 0z" fill="#ffffff" p-id="3312"></path><path d="M864 812.8c-25.6 0-44.8 19.2-44.8 44.8 0 25.6 19.2 44.8 44.8 44.8 19.2 0 32-6.4 38.4-25.6 6.4-12.8 6.4-32 0-44.8 0-12.8-19.2-19.2-38.4-19.2zM761.6 460.8v-25.6-19.2c0-89.6-70.4-153.6-166.4-153.6-38.4 0-64 6.4-89.6 19.2-19.2-12.8-44.8-19.2-76.8-19.2-89.6 0-166.4 70.4-166.4 153.6v44.8l19.2-12.8c19.2-12.8 44.8-25.6 70.4-32-19.2 32-25.6 83.2-6.4 134.4l6.4 12.8 6.4 19.2 12.8-19.2 6.4-6.4v-6.4c19.2-25.6 44.8-51.2 83.2-70.4-12.8 38.4-19.2 96 0 172.8-44.8 6.4-83.2 19.2-102.4 38.4 0 0 0 6.4-6.4 6.4-6.4 6.4-12.8 12.8-12.8 25.6 0 19.2 12.8 38.4 38.4 38.4h294.4c19.2 0 38.4-19.2 38.4-38.4s-19.2-32-19.2-32c-19.2-19.2-57.6-32-102.4-38.4-25.6-32-38.4-89.6-32-172.8h6.4c32 19.2 64 44.8 83.2 76.8l6.4 12.8 12.8 19.2 6.4-19.2 6.4-12.8c12.8-44.8 19.2-96-6.4-140.8 25.6 6.4 51.2 19.2 70.4 32l19.2 12.8z m-128-83.2l-51.2-6.4 38.4 32c38.4 25.6 44.8 76.8 32 121.6-19.2-25.6-44.8-51.2-76.8-70.4-6.4 0-12.8-6.4-19.2-6.4l-19.2-12.8v19.2c-12.8 108.8 6.4 179.2 19.2 217.6l6.4 6.4h6.4c44.8 6.4 76.8 19.2 96 32 0 0 6.4 6.4 6.4 12.8s-6.4 12.8-6.4 12.8H371.2c-6.4 0-6.4-6.4-6.4-12.8s0-6.4 6.4-12.8l6.4-6.4c19.2-12.8 57.6-25.6 102.4-32h19.2l-6.4-12.8c-25.6-108.8 0-185.6 6.4-204.8l12.8-32-38.4 19.2c-6.4 6.4-19.2 12.8-25.6 12.8-32 19.2-57.6 38.4-76.8 64-12.8-51.2 0-89.6 38.4-115.2l38.4-32-57.6 6.4c-38.4 6.4-70.4 12.8-102.4 32 6.4-70.4 64-121.6 134.4-121.6 32 0 57.6 6.4 76.8 19.2l12.8 6.4 6.4-6.4c19.2-12.8 44.8-19.2 76.8-19.2 70.4 0 134.4 51.2 134.4 121.6-25.6-19.2-57.6-25.6-96-32z" fill="#ffffff" p-id="3313"></path></svg>